<?xml version="1.0" encoding="utf-8"?>
<!-- Generator: Adobe Illustrator 13.0.2, SVG Export Plug-In  -->
<!DOCTYPE svg PUBLIC "-//W3C//DTD SVG 1.1//EN" "http://www.w3.org/Graphics/SVG/1.1/DTD/svg11.dtd" [
	<!ENTITY ns_flows "http://ns.adobe.com/Flows/1.0/">
]>
<svg version="1.1"
	 xmlns="http://www.w3.org/2000/svg" xmlns:xlink="http://www.w3.org/1999/xlink" xmlns:a="http://ns.adobe.com/AdobeSVGViewerExtensions/3.0/"
	 x="0px" y="0px" width="143px" height="27px" viewBox="-0.615 -0.691 143 27" enable-background="new -0.615 -0.691 143 27"
	 xml:space="preserve">
<defs>
</defs>
<path fill="#0079C1" d="M1.771,5.984v2.484h0.057c0.335-0.874,0.93-1.577,1.784-2.107c0.855-0.53,1.795-0.796,2.817-0.796
	c1.003,0,1.844,0.131,2.523,0.392c0.678,0.261,1.223,0.628,1.632,1.103c0.408,0.474,0.697,1.056,0.864,1.744S11.7,10.265,11.7,11.12
	v9.268H9.956v-8.981c0-0.612-0.057-1.185-0.168-1.715s-0.308-0.99-0.586-1.38C8.922,7.921,8.545,7.614,8.07,7.391
	C7.596,7.168,7.004,7.057,6.297,7.057c-0.708,0-1.336,0.125-1.885,0.376C3.861,7.685,3.396,8.027,3.015,8.465
	c-0.382,0.437-0.68,0.958-0.894,1.562c-0.214,0.605-0.331,1.26-0.35,1.966v8.396H0V5.984H1.771"/>
<path fill="#0079C1" d="M15.399,8.228c0.298-0.613,0.702-1.117,1.214-1.51c0.512-0.394,1.112-0.684,1.801-0.871
	s1.451-0.281,2.289-0.281c0.633,0,1.265,0.062,1.897,0.183c0.633,0.12,1.2,0.349,1.703,0.684c0.502,0.335,0.912,0.805,1.229,1.41
	c0.316,0.604,0.475,1.391,0.475,2.357v7.65c0,0.708,0.344,1.061,1.032,1.061c0.204,0,0.39-0.036,0.558-0.111v1.479
	c-0.205,0.038-0.386,0.066-0.544,0.084c-0.158,0.02-0.358,0.028-0.6,0.028c-0.448,0-0.808-0.06-1.079-0.182
	c-0.272-0.12-0.483-0.293-0.633-0.517c-0.15-0.223-0.249-0.489-0.296-0.796s-0.069-0.646-0.069-1.019h-0.057
	c-0.316,0.466-0.637,0.879-0.963,1.241c-0.324,0.363-0.687,0.666-1.087,0.908c-0.399,0.242-0.855,0.429-1.367,0.56
	c-0.512,0.129-1.12,0.194-1.826,0.194c-0.67,0-1.298-0.079-1.884-0.236c-0.586-0.158-1.097-0.409-1.533-0.753
	c-0.438-0.346-0.781-0.782-1.032-1.313s-0.376-1.157-0.376-1.883c0-1.004,0.222-1.79,0.669-2.357
	c0.446-0.566,1.036-0.999,1.771-1.297c0.734-0.297,1.563-0.507,2.482-0.628s1.854-0.237,2.803-0.349
	c0.371-0.037,0.697-0.083,0.977-0.14c0.278-0.055,0.511-0.152,0.696-0.293c0.187-0.14,0.33-0.33,0.434-0.571
	c0.102-0.242,0.152-0.559,0.152-0.948c0-0.595-0.098-1.084-0.292-1.465s-0.464-0.684-0.807-0.907
	c-0.343-0.223-0.741-0.376-1.196-0.46c-0.454-0.083-0.94-0.125-1.46-0.125c-1.112,0-2.021,0.265-2.726,0.795
	c-0.705,0.53-1.076,1.381-1.113,2.552h-1.771C14.925,9.567,15.102,8.842,15.399,8.228 M24.179,12.512
	c-0.112,0.204-0.326,0.353-0.643,0.446s-0.597,0.158-0.837,0.195c-0.746,0.13-1.515,0.246-2.306,0.349
	c-0.792,0.102-1.513,0.256-2.165,0.461c-0.651,0.204-1.187,0.497-1.605,0.879c-0.419,0.381-0.629,0.925-0.629,1.632
	c0,0.446,0.089,0.841,0.266,1.185c0.176,0.345,0.414,0.643,0.712,0.894c0.298,0.252,0.644,0.441,1.034,0.572
	c0.391,0.13,0.791,0.194,1.201,0.194c0.67,0,1.312-0.102,1.927-0.307c0.615-0.204,1.15-0.501,1.606-0.893
	c0.457-0.391,0.819-0.864,1.09-1.423c0.27-0.558,0.404-1.19,0.404-1.897v-2.287H24.179z"/>
<path fill="#0079C1" d="M35.235,5.987v1.49h-2.925v9.694c0,0.576,0.078,1.025,0.236,1.351s0.553,0.506,1.184,0.543
	c0.501,0,1.003-0.028,1.505-0.084v1.49c-0.261,0-0.521,0.009-0.781,0.028c-0.262,0.019-0.521,0.028-0.782,0.028
	c-1.173,0-1.992-0.228-2.457-0.683c-0.465-0.456-0.689-1.297-0.67-2.524l-0.006-9.844h-2.512v-1.49h2.512V1.656h1.771v4.331H35.235"
	/>
<path fill="#0079C1" d="M37.775,0.475h1.772v2.817h-1.772V0.475z M37.775,5.99h1.772v14.396h-1.772V5.99z"/>
<path fill="#0079C1" d="M51.928,6.18c0.846,0.41,1.557,0.959,2.134,1.646c0.576,0.689,1.014,1.495,1.311,2.416
	c0.298,0.922,0.446,1.902,0.446,2.945c0,1.042-0.148,2.024-0.446,2.945c-0.297,0.922-0.734,1.727-1.311,2.415
	c-0.577,0.688-1.288,1.232-2.134,1.633c-0.847,0.4-1.818,0.601-2.915,0.601s-2.069-0.2-2.915-0.601s-1.557-0.944-2.134-1.633
	s-1.014-1.493-1.312-2.415c-0.298-0.921-0.445-1.903-0.445-2.945c0-1.043,0.147-2.023,0.445-2.945
	c0.298-0.921,0.734-1.727,1.312-2.416c0.577-0.688,1.288-1.236,2.134-1.646c0.846-0.409,1.818-0.614,2.915-0.614
	S51.081,5.771,51.928,6.18 M46.815,7.586c-0.631,0.353-1.154,0.817-1.571,1.394s-0.732,1.231-0.946,1.964
	c-0.213,0.734-0.319,1.482-0.319,2.244s0.106,1.509,0.319,2.243c0.214,0.734,0.529,1.389,0.946,1.965s0.94,1.041,1.571,1.395
	c0.63,0.353,1.362,0.528,2.197,0.528c0.834,0,1.567-0.176,2.197-0.528c0.63-0.354,1.153-0.818,1.571-1.395s0.732-1.23,0.945-1.965
	c0.214-0.734,0.32-1.481,0.32-2.243s-0.106-1.51-0.32-2.244c-0.213-0.732-0.527-1.388-0.945-1.964S51.84,7.938,51.21,7.586
	c-0.63-0.354-1.363-0.529-2.197-0.529C48.178,7.057,47.445,7.232,46.815,7.586z"/>
<path fill="#0079C1" d="M60.166,5.984v2.484h0.056c0.334-0.874,0.929-1.577,1.784-2.107s1.795-0.796,2.816-0.796
	c1.005,0,1.846,0.131,2.524,0.392c0.678,0.261,1.222,0.628,1.632,1.103c0.408,0.474,0.696,1.056,0.864,1.744
	c0.167,0.688,0.251,1.461,0.251,2.316v9.268H68.35v-8.981c0-0.612-0.056-1.185-0.168-1.715c-0.111-0.53-0.307-0.99-0.587-1.38
	c-0.279-0.391-0.656-0.697-1.13-0.921c-0.475-0.223-1.067-0.334-1.774-0.334c-0.708,0-1.336,0.125-1.885,0.376
	c-0.55,0.252-1.016,0.595-1.396,1.032c-0.383,0.437-0.681,0.958-0.895,1.562c-0.215,0.605-0.331,1.26-0.349,1.966v8.396h-1.772
	V5.984H60.166"/>
<path fill="#0079C1" d="M73.794,8.228c0.297-0.613,0.702-1.117,1.214-1.51c0.511-0.394,1.112-0.684,1.801-0.871
	s1.45-0.281,2.288-0.281c0.633,0,1.265,0.062,1.898,0.183c0.633,0.12,1.199,0.349,1.702,0.684s0.912,0.805,1.229,1.41
	c0.317,0.604,0.475,1.391,0.475,2.357v7.65c0,0.708,0.345,1.061,1.032,1.061c0.205,0,0.392-0.036,0.559-0.111v1.479
	c-0.204,0.038-0.387,0.066-0.544,0.084c-0.158,0.02-0.358,0.028-0.601,0.028c-0.447,0-0.807-0.06-1.079-0.182
	c-0.271-0.12-0.482-0.293-0.633-0.517c-0.15-0.223-0.249-0.489-0.295-0.796c-0.047-0.307-0.07-0.646-0.07-1.019h-0.056
	c-0.317,0.466-0.637,0.879-0.963,1.241c-0.325,0.363-0.688,0.666-1.087,0.908c-0.4,0.242-0.856,0.429-1.367,0.56
	c-0.512,0.129-1.12,0.194-1.827,0.194c-0.669,0-1.297-0.079-1.883-0.236c-0.586-0.158-1.097-0.409-1.534-0.753
	c-0.437-0.346-0.781-0.782-1.032-1.313s-0.376-1.157-0.376-1.883c0-1.004,0.224-1.79,0.669-2.357
	c0.446-0.566,1.036-0.999,1.771-1.297c0.733-0.297,1.562-0.507,2.481-0.628s1.854-0.237,2.804-0.349
	c0.372-0.037,0.696-0.083,0.976-0.14c0.279-0.055,0.511-0.152,0.697-0.293c0.186-0.14,0.33-0.33,0.433-0.571
	c0.103-0.242,0.153-0.559,0.153-0.948c0-0.595-0.098-1.084-0.292-1.465c-0.195-0.381-0.464-0.684-0.806-0.907
	c-0.345-0.223-0.742-0.376-1.197-0.46c-0.454-0.083-0.941-0.125-1.46-0.125c-1.113,0-2.022,0.265-2.727,0.795
	c-0.705,0.53-1.075,1.381-1.112,2.552h-1.771C73.318,9.567,73.496,8.842,73.794,8.228 M82.572,12.512
	c-0.111,0.204-0.325,0.353-0.643,0.446c-0.316,0.094-0.596,0.158-0.837,0.195c-0.746,0.13-1.514,0.246-2.305,0.349
	c-0.792,0.102-1.514,0.256-2.165,0.461c-0.652,0.204-1.188,0.497-1.606,0.879c-0.42,0.381-0.628,0.925-0.628,1.632
	c0,0.446,0.088,0.841,0.265,1.185c0.177,0.345,0.414,0.643,0.713,0.894c0.298,0.252,0.643,0.441,1.033,0.572
	c0.392,0.13,0.791,0.194,1.201,0.194c0.67,0,1.313-0.102,1.927-0.307c0.615-0.204,1.15-0.501,1.607-0.893
	c0.456-0.391,0.819-0.864,1.089-1.423c0.271-0.558,0.405-1.19,0.405-1.897v-2.287H82.572z"/>
<rect x="87.912" y="0.475" fill="#0079C1" width="1.771" height="19.913"/>
<path fill="#0079C1" d="M106.533,21.436c-0.158,0.744-0.498,1.438-1.02,2.079c-0.521,0.641-1.273,1.185-2.261,1.632
	c-0.986,0.446-2.308,0.669-3.962,0.669c-0.707,0-1.428-0.089-2.162-0.265c-0.735-0.178-1.405-0.453-2.009-0.825
	c-0.605-0.373-1.107-0.853-1.508-1.44c-0.399-0.587-0.628-1.291-0.683-2.11h3.934c0.187,0.75,0.549,1.27,1.089,1.561
	c0.539,0.291,1.161,0.437,1.868,0.437c1.116,0,1.931-0.335,2.442-1.003c0.511-0.669,0.757-1.516,0.739-2.537v-1.896h-0.057
	c-0.429,0.763-1.037,1.324-1.827,1.687c-0.791,0.361-1.623,0.543-2.497,0.543c-1.079,0-2.01-0.191-2.79-0.572
	c-0.782-0.382-1.423-0.902-1.925-1.563c-0.504-0.66-0.87-1.433-1.104-2.316c-0.232-0.884-0.348-1.819-0.348-2.805
	c0-0.931,0.134-1.828,0.403-2.693c0.271-0.865,0.665-1.627,1.187-2.288c0.521-0.661,1.167-1.186,1.938-1.577
	c0.772-0.39,1.66-0.586,2.665-0.586c0.948,0,1.781,0.177,2.497,0.53c0.716,0.352,1.315,0.947,1.8,1.782h0.057V5.953h3.769v13.502
	C106.771,20.031,106.69,20.691,106.533,21.436 M101.104,16.648c0.429-0.223,0.781-0.521,1.061-0.893
	c0.277-0.373,0.487-0.797,0.628-1.272c0.139-0.474,0.209-0.973,0.209-1.494c0-0.596-0.057-1.159-0.168-1.69
	c-0.112-0.531-0.297-1.001-0.559-1.411c-0.26-0.409-0.604-0.735-1.03-0.978c-0.429-0.241-0.968-0.363-1.617-0.363
	c-0.56,0-1.037,0.111-1.438,0.336c-0.399,0.223-0.734,0.525-1.004,0.907s-0.465,0.819-0.586,1.313s-0.18,1.01-0.18,1.55
	c0,0.522,0.05,1.039,0.153,1.552c0.102,0.513,0.278,0.974,0.528,1.383c0.251,0.41,0.581,0.745,0.99,1.006
	c0.41,0.261,0.921,0.391,1.535,0.391C100.185,16.984,100.678,16.873,101.104,16.648z"/>
<path fill="#0079C1" d="M113.72,5.958v2.678h0.057c0.187-0.446,0.438-0.86,0.755-1.241c0.315-0.382,0.678-0.708,1.088-0.978
	c0.408-0.271,0.846-0.479,1.311-0.628s0.949-0.224,1.451-0.224c0.26,0,0.549,0.047,0.865,0.141V9.39
	c-0.187-0.037-0.41-0.069-0.67-0.097c-0.261-0.029-0.512-0.043-0.754-0.043c-0.725,0-1.339,0.122-1.841,0.362
	c-0.503,0.242-0.906,0.573-1.214,0.991c-0.307,0.419-0.525,0.908-0.656,1.466c-0.13,0.559-0.194,1.163-0.194,1.814v6.504h-3.965
	V5.958H113.72"/>
<rect x="120.889" y="5.964" fill="#0079C1" width="3.966" height="14.424"/>
<path fill="#0079C1" d="M138.24,18.55c-0.466,0.781-1.075,1.344-1.828,1.688c-0.754,0.344-1.605,0.517-2.555,0.517
	c-1.079,0-2.027-0.21-2.846-0.629c-0.819-0.418-1.493-0.986-2.023-1.703c-0.53-0.716-0.931-1.54-1.199-2.471
	c-0.271-0.931-0.405-1.898-0.405-2.903c0-0.968,0.134-1.903,0.404-2.807c0.27-0.901,0.67-1.697,1.2-2.386
	c0.529-0.688,1.195-1.243,1.994-1.662c0.801-0.418,1.731-0.628,2.791-0.628c0.856,0,1.669,0.183,2.441,0.544
	c0.771,0.362,1.382,0.896,1.828,1.602h0.057V0.475h3.965v19.916h-3.769V18.55H138.24 M138.072,11.412
	c-0.111-0.55-0.303-1.034-0.571-1.453c-0.271-0.419-0.619-0.76-1.047-1.021c-0.429-0.261-0.968-0.392-1.617-0.392
	c-0.652,0-1.2,0.131-1.646,0.392s-0.805,0.605-1.074,1.034c-0.271,0.429-0.465,0.918-0.585,1.468
	c-0.122,0.55-0.182,1.123-0.182,1.719c0,0.56,0.064,1.118,0.194,1.678c0.13,0.559,0.34,1.058,0.629,1.496
	c0.288,0.438,0.649,0.792,1.087,1.062c0.438,0.271,0.962,0.405,1.577,0.405c0.649,0,1.194-0.13,1.632-0.392
	c0.436-0.261,0.786-0.609,1.046-1.048c0.26-0.438,0.446-0.937,0.558-1.496c0.111-0.559,0.168-1.137,0.168-1.732
	C138.24,12.535,138.184,11.963,138.072,11.412z"/>
<polyline fill="#0079C1" points="122.882,0 120.521,2.359 122.882,4.72 125.242,2.359 122.882,0 "/>
</svg>
